# xmcd CD database file
#
# Track frame offsets:
#	183
#	14150
#	27393
#	41853
#	55280
#	67950
#	81010
#	92380
#	105665
#	117643
#	130503
#	141043
#	154553
#	166088
#	179298
#	190790
#	204225
#	215548
#	226350
#	239343
#	252285
#	264290
#
# Disc length: 3696 seconds
#
# Revision: 0
# Processed by: cddbd v1.5.1PL0 Copyright (c) Steve Scherf et al.
# Submitted via: CDex 1.50beta10
#
DISCID=270e6e16
DTITLE=Erroll Garner - Relaxin' with Erroll
DYEAR=1947
DGENRE=Jazz
TTITLE0=trio
TTITLE1=pastel
TTITLE2=play, piano, play
TTITLE3=don't worry 'bout me
TTITLE4=love for sale
TTITLE5=frankie and johnny
TTITLE6=scatter brain
TTITLE7=through along and sleepless night
TTITLE8=i let a song go out of my heart
TTITLE9=jitterbug waltz
TTITLE10=deep purple
TTITLE11=this funny thing called love
TTITLE12=again
TTITLE13=goodbye
TTITLE14=lazy river
TTITLE15=tippin' out with erroll
TTITLE16=relaxin' at sugar ray's
TTITLE17=minor with the trio
TTITLE18=the quaker
TTITLE19=no moon
TTITLE20=cologne
TTITLE21=bonnie boy
EXTD=YEAR: 1947
EXTT0=
EXTT1=
EXTT2=
EXTT3=
EXTT4=
EXTT5=
EXTT6=
EXTT7=
EXTT8=
EXTT9=
EXTT10=
EXTT11=
EXTT12=
EXTT13=
EXTT14=
EXTT15=
EXTT16=
EXTT17=
EXTT18=
EXTT19=
EXTT20=
EXTT21=
PLAYORDER=
